<?xml version="1.0" standalone="no"?>
<!DOCTYPE svg PUBLIC "-//W3C//DTD SVG 20010904//EN"
 "http://www.w3.org/TR/2001/REC-SVG-20010904/DTD/svg10.dtd">
<svg version="1.0" xmlns="http://www.w3.org/2000/svg"
 width="4000.000000pt" height="1920.000000pt" viewBox="0 0 4000.000000 1920.000000"
 preserveAspectRatio="xMidYMid meet">

<g transform="translate(0.000000,1920.000000) scale(0.100000,-0.100000)"
fill="#000000" stroke="none">
<path d="M12297 18840 c-3 -12 -14 -20 -27 -20 -12 0 -51 -14 -88 -31 -37 -17
-96 -44 -132 -61 -36 -16 -72 -33 -80 -38 -8 -6 -35 -21 -60 -35 -25 -14 -67
-39 -95 -55 -27 -15 -68 -38 -90 -49 -22 -12 -64 -39 -93 -61 -29 -22 -56 -40
-60 -40 -4 0 -37 -21 -72 -47 -61 -46 -72 -54 -136 -98 -34 -22 -117 -87 -124
-96 -3 -4 -36 -30 -75 -59 -71 -54 -221 -187 -305 -270 -143 -143 -345 -358
-407 -436 -150 -184 -229 -284 -253 -319 -14 -20 -36 -51 -50 -70 -38 -52
-123 -179 -188 -280 -32 -49 -67 -103 -78 -120 -23 -36 -56 -95 -84 -150 -11
-22 -36 -67 -55 -100 -19 -33 -53 -98 -75 -145 -23 -47 -46 -92 -51 -100 -5
-8 -16 -31 -24 -50 -9 -19 -24 -53 -34 -75 -52 -109 -81 -175 -81 -187 0 -7
-9 -27 -19 -45 -11 -17 -25 -51 -31 -75 -7 -24 -20 -56 -30 -73 -10 -16 -21
-50 -24 -75 -4 -25 -15 -59 -25 -76 -10 -17 -22 -51 -26 -75 -4 -24 -11 -51
-15 -59 -10 -18 -7 -24 -50 108 -176 546 -545 978 -1025 1202 -392 183 -727
211 -1445 120 -85 -11 -180 -20 -212 -20 -51 0 -811 -92 -867 -105 -13 -3
-145 -22 -295 -41 -149 -19 -408 -53 -576 -75 -168 -22 -440 -57 -605 -79
-165 -21 -367 -48 -450 -59 -82 -11 -341 -45 -575 -76 -1068 -140 -1303 -180
-1585 -276 -249 -85 -542 -246 -756 -416 -220 -176 -395 -401 -525 -680 -145
-310 -210 -554 -199 -748 3 -55 10 -226 15 -380 8 -260 12 -293 44 -455 57
-283 159 -765 216 -1015 16 -71 41 -186 55 -255 14 -69 30 -141 35 -161 5 -20
24 -103 40 -185 17 -82 35 -165 40 -184 14 -55 37 -158 54 -240 8 -41 31 -145
50 -230 19 -85 42 -191 51 -235 8 -44 27 -127 40 -185 14 -58 41 -177 59 -265
71 -332 107 -499 130 -598 13 -56 29 -129 36 -162 7 -33 23 -105 35 -160 13
-55 35 -156 50 -225 14 -69 37 -170 50 -225 13 -55 38 -163 54 -240 30 -139
67 -299 98 -425 19 -78 111 -351 123 -365 5 -6 16 -33 26 -60 21 -65 122 -267
187 -375 121 -204 304 -410 480 -541 187 -140 466 -289 667 -357 123 -41 129
-42 435 -69 374 -32 407 -32 610 1 248 41 325 61 1255 332 140 41 307 89 370
108 199 59 740 218 820 241 25 7 99 29 165 48 113 34 420 124 635 187 52 15
250 74 440 130 190 56 404 119 475 140 503 146 749 228 1035 345 442 182 742
449 975 870 104 186 185 377 185 433 0 19 12 59 26 89 15 29 29 75 31 101 3
26 15 92 28 147 46 195 59 309 58 505 -1 225 -29 443 -94 730 -15 63 -109 507
-119 555 -21 111 -72 350 -75 354 -2 4 -19 87 -39 186 -20 99 -44 210 -53 247
-17 68 -13 94 10 67 15 -19 146 -130 168 -144 9 -5 61 -39 115 -76 160 -106
276 -169 339 -185 16 -4 43 -15 60 -25 16 -9 48 -20 70 -24 22 -4 58 -15 80
-25 51 -22 191 -35 242 -21 21 6 54 26 74 44 29 27 39 47 53 104 17 67 17 77
2 142 -15 65 -75 193 -97 207 -5 3 -16 20 -24 37 -9 18 -31 57 -50 87 -19 30
-39 66 -45 80 -6 14 -17 32 -25 40 -11 13 -28 42 -72 125 -31 59 -73 157 -73
171 0 8 -11 36 -24 62 -13 26 -26 65 -29 88 -4 22 -16 61 -26 85 -11 24 -25
76 -31 114 -6 39 -17 88 -25 110 -8 22 -25 137 -37 255 -26 252 -31 673 -10
855 7 61 17 169 23 240 5 72 17 154 25 183 8 30 19 91 25 137 5 45 20 117 34
159 14 42 25 92 25 111 0 19 11 64 25 101 14 36 25 77 25 91 0 14 11 52 24 86
13 34 27 80 31 102 3 22 17 63 31 92 13 28 24 60 24 70 0 10 11 42 25 71 14
30 25 59 25 66 0 6 9 29 20 51 11 21 24 54 30 74 11 37 24 67 77 181 17 36 38
81 47 100 9 19 20 42 25 50 5 8 16 31 25 50 30 61 46 94 61 120 8 14 23 43 33
65 11 22 27 46 36 54 9 7 16 19 16 26 0 6 13 31 28 56 16 24 43 67 60 94 17
28 41 64 52 80 11 17 37 55 58 86 157 237 549 650 615 649 29 -1 54 -21 67
-54 13 -36 13 -2389 0 -3706 -6 -531 -15 -1757 -21 -2725 -13 -2170 -23 -3207
-32 -3221 -7 -12 -31 -274 -42 -449 -3 -55 -12 -129 -20 -165 -8 -36 -21 -120
-30 -187 -8 -67 -20 -134 -26 -150 -6 -15 -17 -67 -25 -115 -7 -48 -20 -103
-29 -121 -8 -18 -20 -59 -25 -90 -5 -31 -18 -77 -29 -102 -11 -24 -23 -66 -27
-92 -4 -25 -17 -73 -30 -104 -13 -32 -24 -70 -24 -84 0 -14 -9 -44 -20 -68
-21 -44 -50 -178 -57 -262 -2 -32 3 -70 14 -105 15 -46 26 -60 67 -87 63 -43
136 -45 220 -8 31 14 66 25 78 25 18 0 90 30 153 63 11 6 43 23 70 38 28 14
77 45 110 68 33 22 64 41 69 41 4 0 34 22 65 48 31 27 77 64 103 84 72 54 285
258 322 308 19 25 60 80 92 122 33 42 67 89 76 105 28 45 41 66 65 100 13 17
23 35 23 40 0 4 14 28 30 53 16 25 30 51 30 58 0 7 11 28 25 46 14 18 25 39
25 48 0 8 11 29 25 48 14 19 25 39 25 45 0 6 9 29 21 50 11 22 27 63 36 90 8
28 21 57 28 65 7 8 17 29 21 45 3 17 17 53 29 80 12 28 25 70 29 93 3 24 15
61 26 83 11 21 20 50 20 64 0 15 11 59 24 98 13 40 27 99 31 132 4 33 16 83
26 110 10 28 23 95 28 150 5 55 18 138 29 185 14 57 24 153 31 290 6 113 15
243 21 290 5 47 14 324 19 615 14 713 24 6574 14 7690 l-9 890 -29 53 c-35 65
-159 194 -236 245 -31 20 -60 37 -65 37 -5 0 -27 14 -48 30 -22 17 -47 30 -55
30 -9 0 -33 11 -53 25 -20 14 -46 25 -56 25 -10 0 -40 11 -65 24 -25 14 -63
28 -84 32 -21 4 -55 15 -75 25 -21 11 -65 22 -99 26 -43 4 -64 11 -72 25 -11
17 -31 18 -313 18 -293 0 -302 -1 -307 -20z m-5232 -3260 c380 -65 688 -227
957 -506 95 -99 135 -150 206 -264 128 -206 211 -394 282 -640 47 -167 143
-553 176 -715 14 -66 29 -133 33 -150 5 -16 16 -64 25 -105 9 -41 37 -169 62
-285 25 -115 56 -262 69 -325 13 -63 47 -225 75 -360 69 -334 86 -418 105
-540 9 -58 23 -134 30 -170 55 -261 55 -681 -1 -928 -34 -149 -117 -357 -195
-490 -11 -18 -16 -38 -13 -44 4 -6 3 -8 -3 -5 -5 3 -18 -8 -28 -26 -10 -18
-34 -52 -54 -77 -19 -25 -25 -36 -12 -25 12 11 36 41 53 67 32 49 41 58 36 36
-1 -7 2 -35 7 -63 5 -27 8 -53 7 -56 0 -3 5 -23 12 -44 8 -21 11 -55 9 -75 -4
-29 -1 -40 14 -51 16 -12 19 -28 20 -92 1 -43 7 -84 13 -91 6 -8 13 -58 16
-112 7 -124 9 -137 16 -149 3 -6 4 -30 2 -54 -2 -23 2 -53 8 -64 13 -25 17
-45 25 -139 3 -38 9 -68 14 -68 4 0 7 -13 7 -30 -1 -16 4 -35 9 -42 6 -7 10
-43 10 -80 -1 -42 -4 -63 -10 -55 -5 8 -7 5 -3 -8 3 -11 8 -38 12 -60 4 -22
13 -49 20 -60 8 -11 14 -38 14 -60 0 -41 0 -41 33 -37 46 6 -98 -64 -243 -117
-63 -23 -131 -49 -150 -56 -77 -30 -238 -83 -290 -95 -153 -34 -464 -133 -615
-195 -44 -18 -134 -49 -200 -70 -66 -20 -131 -41 -145 -46 -43 -15 -243 -69
-254 -69 -6 1 0 7 14 15 14 8 22 14 19 15 -12 0 -464 -131 -989 -288 -1038
-311 -1745 -516 -1930 -562 -315 -77 -614 -109 -841 -91 -283 23 -498 83 -744
206 -174 88 -303 176 -429 295 -201 191 -354 410 -455 655 -19 44 -40 94 -47
112 -20 45 -17 53 6 18 17 -25 20 -27 20 -10 0 11 11 32 25 47 14 15 25 30 25
34 0 10 72 124 79 124 3 0 14 17 24 38 10 21 30 52 45 68 15 16 32 37 37 46
46 73 73 108 87 113 9 3 20 15 23 26 4 10 11 19 16 19 5 0 9 5 9 12 0 6 17 28
38 47 21 20 44 48 52 64 7 15 18 27 24 27 11 0 46 35 46 45 0 12 45 55 57 55
8 0 17 8 20 17 7 17 59 73 69 73 2 0 29 25 59 55 31 30 62 55 70 55 8 0 15 5
15 11 0 14 25 39 39 39 6 0 11 4 11 8 0 5 11 15 25 22 14 7 25 19 25 26 0 6 8
14 18 18 20 7 79 48 107 75 11 10 30 23 41 29 19 10 23 7 39 -28 10 -22 23
-44 30 -50 6 -5 -13 39 -43 97 -29 59 -69 150 -88 202 -20 53 -42 112 -50 131
-18 46 -106 365 -139 510 -14 63 -35 147 -45 185 -10 39 -33 135 -50 215 -17
80 -35 163 -41 185 -16 66 -39 167 -50 220 -11 60 -25 122 -79 365 -22 102
-45 205 -50 230 -5 25 -23 110 -40 190 -17 80 -35 165 -40 190 -4 25 -18 90
-30 145 -11 55 -32 161 -45 235 -14 74 -29 158 -35 185 -55 271 -74 442 -74
690 -1 290 17 412 91 635 80 237 222 461 412 650 141 140 291 243 492 340 364
173 672 235 2672 535 658 98 1028 120 1292 75z m-5256 -7270 c0 -10 -3 -8 -9
5 -12 27 -12 43 0 25 5 -8 9 -22 9 -30z"/>
<path d="M6660 15013 c-258 -20 -654 -75 -1416 -198 -1130 -182 -1478 -253
-1728 -352 -306 -121 -515 -308 -646 -578 -97 -199 -130 -468 -95 -760 16
-135 74 -471 105 -615 12 -52 25 -117 30 -145 17 -95 39 -200 44 -215 3 -8 21
-89 40 -180 20 -91 44 -205 55 -255 10 -49 26 -124 35 -165 9 -41 22 -104 30
-140 8 -36 31 -139 50 -230 20 -91 47 -210 60 -265 14 -55 32 -134 41 -175 20
-93 16 -77 75 -305 81 -310 108 -403 141 -480 4 -11 20 -48 33 -82 25 -61 94
-193 101 -193 2 0 -9 28 -24 62 l-29 62 77 25 c42 14 82 31 89 38 7 7 25 16
40 19 15 3 38 10 52 14 14 5 54 17 90 26 36 8 67 19 70 24 11 17 343 80 421
80 15 0 29 4 31 9 12 34 816 35 838 2 3 -4 32 -11 65 -14 33 -4 116 -18 185
-33 69 -14 138 -28 155 -31 16 -3 35 -12 43 -19 7 -8 22 -14 33 -14 24 0 212
-60 219 -70 3 -3 36 -19 74 -33 47 -18 72 -23 77 -16 4 7 20 4 47 -10 23 -12
48 -21 57 -21 8 0 15 -4 15 -9 0 -5 24 -21 54 -35 41 -20 60 -24 78 -17 33 12
107 6 142 -13 16 -8 33 -13 38 -10 5 3 16 0 25 -8 15 -11 16 -11 10 5 -7 20 3
22 22 5 10 -11 15 -10 25 5 7 9 22 17 32 17 16 0 17 2 4 10 -13 8 -12 10 5 11
11 1 29 1 40 1 15 -2 17 0 6 7 -12 8 -12 12 2 25 8 9 22 13 30 10 15 -5 50 53
41 68 -7 10 22 39 30 31 3 -4 6 -1 6 6 0 8 6 11 16 7 8 -3 13 -2 9 3 -3 5 1
12 7 14 10 4 10 7 0 14 -10 8 -10 16 1 41 7 18 16 29 20 25 7 -6 11 11 8 36
-2 7 2 10 8 6 6 -3 11 1 11 9 0 9 6 16 13 16 8 0 7 4 -3 10 -10 6 -11 10 -3
10 7 0 15 11 19 25 3 13 11 23 17 22 7 -1 12 18 13 48 2 27 7 51 13 53 6 2 9
8 6 12 -3 5 3 17 13 27 16 15 18 28 13 90 -3 39 -3 69 0 67 12 -7 7 129 -6
200 -8 42 -10 72 -4 74 5 2 4 13 -3 25 -14 25 -21 170 -8 162 4 -3 6 4 3 15
-6 22 -18 26 -28 10 -4 -6 -11 -8 -16 -4 -5 3 -37 -20 -72 -51 -80 -73 -246
-184 -361 -242 -113 -57 -318 -125 -451 -149 -74 -14 -148 -19 -285 -19 -218
0 -318 15 -515 80 -263 86 -459 208 -665 414 -150 150 -244 278 -328 446 -74
149 -119 279 -153 445 -19 90 -22 137 -22 335 -1 213 1 239 26 352 148 667
643 1161 1310 1305 88 19 133 22 322 22 191 0 233 -3 323 -22 200 -44 378
-112 536 -206 61 -36 81 -44 89 -34 6 10 8 9 4 -4 -4 -12 15 -31 66 -69 39
-29 116 -96 172 -148 l100 -95 -85 88 c-47 48 -118 115 -159 148 -41 33 -76
68 -77 77 -2 9 -6 35 -10 59 -4 25 -3 42 3 42 6 0 3 34 -8 80 -10 50 -13 80
-7 80 7 0 8 14 4 38 -4 20 -8 43 -8 50 -1 6 -5 12 -10 12 -18 0 -6 27 25 55
17 15 25 26 16 22 -12 -4 -18 1 -21 17 -8 41 29 18 61 -38 34 -62 130 -152
186 -177 104 -46 234 -45 326 2 40 20 139 105 139 119 0 3 -21 -14 -48 -40
-79 -76 -128 -95 -252 -95 -92 0 -112 3 -160 26 -60 28 -160 120 -186 171 -25
48 -54 158 -54 202 0 101 63 235 140 296 189 149 463 76 580 -155 27 -52 34
-82 40 -153 l7 -87 2 73 c1 75 -26 178 -51 193 -16 10 -12 13 41 26 34 9 50 8
75 -3 58 -26 63 -34 63 -102 -1 -64 16 -102 45 -102 33 -1 69 -63 74 -130 4
-56 13 -74 48 -97 25 -16 35 -30 38 -57 2 -20 -1 -38 -7 -40 -6 -3 -5 -5 2 -5
7 -1 15 -17 19 -36 3 -19 10 -35 15 -35 5 0 9 -7 9 -15 0 -8 9 -19 21 -25 12
-7 20 -20 19 -33 -1 -12 -1 -24 0 -27 4 -9 11 -54 13 -86 1 -18 7 -30 13 -27
7 2 9 -7 6 -27 -2 -18 0 -30 7 -30 12 0 15 -26 4 -33 -5 -2 -3 -3 3 -1 7 1 14
-19 18 -49 3 -29 10 -53 16 -55 5 -2 10 -8 10 -14 0 -5 6 -16 13 -23 6 -8 17
-21 23 -28 7 -8 17 -47 23 -88 7 -40 18 -81 26 -89 8 -9 15 -31 15 -48 0 -18
5 -32 10 -32 6 0 10 -20 10 -45 0 -37 5 -51 28 -73 23 -23 28 -36 30 -87 1
-33 7 -64 12 -69 6 -6 10 -20 10 -32 0 -13 8 -29 18 -36 19 -13 52 -129 52
-179 0 -15 7 -32 15 -39 8 -7 15 -21 15 -31 0 -11 6 -19 13 -19 8 0 7 -4 -3
-10 -9 -6 -10 -10 -3 -10 6 0 10 -9 8 -20 -2 -11 2 -20 8 -20 8 0 7 -4 -2 -9
-12 -8 -12 -12 2 -26 10 -9 17 -32 17 -51 0 -19 5 -34 10 -34 6 0 10 -11 10
-24 0 -13 7 -42 15 -65 8 -23 16 -58 17 -78 2 -25 8 -37 20 -41 10 -2 19 -12
19 -21 1 -9 3 -25 4 -36 2 -11 6 -38 9 -60 3 -22 10 -41 16 -43 5 -2 7 -15 4
-29 -5 -20 -4 -24 6 -18 10 6 12 4 7 -7 -3 -9 0 -40 8 -70 7 -29 18 -93 25
-141 8 -48 17 -83 20 -76 4 6 2 39 -5 73 -7 33 -18 93 -25 131 -19 116 -41
228 -52 270 -6 22 -26 117 -45 210 -37 179 -40 194 -73 345 -12 52 -25 118
-30 145 -5 28 -29 142 -54 255 -25 113 -52 237 -61 275 -18 83 -60 274 -81
365 -8 36 -20 80 -25 97 -6 18 -21 79 -35 135 -116 485 -293 783 -576 972
-210 139 -493 203 -798 179z m772 -585 c-9 -9 -16 -8 -30 7 -16 18 -16 18 1 6
15 -12 17 -11 17 5 0 14 3 15 12 6 9 -9 9 -15 0 -24z m-692 -352 c0 -3 -4 -8
-10 -11 -5 -3 -10 -1 -10 4 0 6 5 11 10 11 6 0 10 -2 10 -4z m1657 -1918 c-3
-8 -6 -5 -6 6 -1 11 2 17 5 13 3 -3 4 -12 1 -19z m10 -60 c-3 -8 -6 -5 -6 6
-1 11 2 17 5 13 3 -3 4 -12 1 -19z m-1717 -2338 c0 -5 -5 -10 -11 -10 -5 0 -7
5 -4 10 3 6 8 10 11 10 2 0 4 -4 4 -10z"/>
<path d="M7590 14351 c0 -5 5 -13 10 -16 6 -3 10 -2 10 4 0 5 -4 13 -10 16 -5
3 -10 2 -10 -4z"/>
<path d="M7471 14069 c0 -8 -12 -36 -24 -62 -13 -25 -20 -44 -15 -41 16 10 49
86 45 102 -4 14 -5 15 -6 1z"/>
<path d="M7040 13256 c0 -2 8 -10 18 -17 15 -13 16 -12 3 4 -13 16 -21 21 -21
13z"/>
<path d="M5575 13231 c-224 -47 -402 -147 -563 -316 -275 -289 -369 -706 -245
-1090 94 -294 306 -539 577 -666 519 -243 1132 -43 1398 456 47 88 90 207 109
303 35 173 22 410 -31 564 -131 379 -406 641 -780 740 -112 29 -345 34 -465 9z
m1262 -873 c-3 -7 -5 -2 -5 12 0 14 2 19 5 13 2 -7 2 -19 0 -25z m21 -118 c0
-23 -1 -22 -8 5 -4 17 -8 46 -8 65 l0 35 9 -40 c4 -22 8 -51 7 -65z m-1 -52
c-3 -8 -6 -5 -6 6 -1 11 2 17 5 13 3 -3 4 -12 1 -19z"/>
<path d="M7085 13200 c10 -11 20 -20 23 -20 3 0 -3 9 -13 20 -10 11 -20 20
-23 20 -3 0 3 -9 13 -20z"/>
<path d="M7221 13000 c14 -31 19 -36 19 -24 0 6 -7 19 -16 30 -14 18 -14 18
-3 -6z"/>
<path d="M7300 12845 c0 -5 5 -17 10 -25 5 -8 10 -10 10 -5 0 6 -5 17 -10 25
-5 8 -10 11 -10 5z"/>
<path d="M8520 11515 c0 -17 4 -35 9 -40 5 -6 11 -19 14 -30 2 -11 2 0 0 25
-6 57 -22 89 -23 45z"/>
<path d="M8553 11375 c0 -22 2 -30 4 -17 2 12 2 30 0 40 -3 9 -5 -1 -4 -23z"/>
<path d="M8567 11235 c3 -55 7 -102 9 -104 7 -8 2 103 -6 154 -6 35 -7 21 -3
-50z"/>
<path d="M7084 11068 l-19 -23 23 19 c21 18 27 26 19 26 -2 0 -12 -10 -23 -22z"/>
<path d="M8582 11045 c0 -16 2 -22 5 -12 2 9 2 23 0 30 -3 6 -5 -1 -5 -18z"/>
<path d="M7008 10978 c-62 -66 -78 -90 -27 -42 31 29 94 104 87 104 -1 0 -29
-28 -60 -62z"/>
<path d="M8572 10890 c0 -19 2 -27 5 -17 2 9 2 25 0 35 -3 9 -5 1 -5 -18z"/>
<path d="M8562 10815 c0 -16 2 -22 5 -12 2 9 2 23 0 30 -3 6 -5 -1 -5 -18z"/>
<path d="M8734 9878 l-19 -23 23 19 c12 11 22 21 22 23 0 8 -8 2 -26 -19z"/>
<path d="M8644 9778 l-29 -33 33 29 c30 28 37 36 29 36 -2 0 -16 -15 -33 -32z"/>
<path d="M7045 9700 c-13 -5 -14 -9 -5 -9 8 0 24 4 35 9 13 5 14 9 5 9 -8 0
-24 -4 -35 -9z"/>
<path d="M6900 9665 c-85 -23 -303 -82 -560 -150 -167 -44 -173 -46 -167 -52
5 -4 211 49 637 164 113 30 207 57 209 59 10 9 -40 1 -119 -21z"/>
<path d="M3630 9650 c6 -11 13 -20 16 -20 2 0 0 9 -6 20 -6 11 -13 20 -16 20
-2 0 0 -9 6 -20z"/>
<path d="M3710 9536 c0 -2 8 -10 18 -17 15 -13 16 -12 3 4 -13 16 -21 21 -21
13z"/>
<path d="M6138 9453 c7 -3 16 -2 19 1 4 3 -2 6 -13 5 -11 0 -14 -3 -6 -6z"/>
<path d="M6098 9443 c7 -3 16 -2 19 1 4 3 -2 6 -13 5 -11 0 -14 -3 -6 -6z"/>
<path d="M6058 9433 c7 -3 16 -2 19 1 4 3 -2 6 -13 5 -11 0 -14 -3 -6 -6z"/>
<path d="M6018 9423 c7 -3 16 -2 19 1 4 3 -2 6 -13 5 -11 0 -14 -3 -6 -6z"/>
<path d="M5978 9413 c7 -3 16 -2 19 1 4 3 -2 6 -13 5 -11 0 -14 -3 -6 -6z"/>
<path d="M3070 9261 c5 -11 15 -23 21 -27 6 -3 3 5 -6 20 -20 30 -30 35 -15 7z"/>
<path d="M28855 18841 c-3 -10 -16 -22 -28 -25 -48 -13 -130 -112 -147 -177
-6 -24 -18 -59 -26 -76 -11 -24 -17 -99 -24 -271 -9 -215 -25 -427 -35 -443
-2 -3 -9 -309 -15 -680 -9 -535 -13 -677 -24 -687 -10 -10 -51 -13 -162 -13
-281 1 -849 22 -1005 36 -86 8 -218 15 -293 15 -125 0 -141 -2 -185 -25 -27
-13 -59 -37 -70 -52 -65 -83 -81 -107 -81 -118 0 -7 -7 -18 -15 -25 -8 -7 -21
-33 -29 -59 -8 -25 -24 -64 -35 -86 -12 -21 -21 -48 -21 -60 0 -11 -11 -56
-24 -100 -44 -140 -79 -411 -58 -438 5 -7 15 -42 22 -80 16 -86 71 -161 128
-176 20 -5 215 -14 432 -20 217 -6 438 -15 490 -20 52 -6 253 -12 447 -14 194
-3 357 -9 364 -13 10 -6 11 -258 6 -1143 -14 -2272 -17 -2583 -32 -2626 -7
-22 -17 -69 -20 -105 -4 -36 -14 -78 -22 -93 -8 -16 -21 -63 -29 -104 -8 -42
-19 -82 -24 -88 -5 -6 -17 -40 -26 -75 -9 -36 -25 -80 -35 -99 -11 -20 -19
-45 -19 -56 0 -11 -11 -40 -25 -64 -14 -23 -25 -48 -25 -55 0 -6 -14 -38 -30
-71 -16 -33 -30 -67 -30 -76 0 -8 -11 -30 -25 -49 -14 -19 -25 -41 -25 -51 0
-9 -8 -27 -19 -40 -10 -13 -28 -44 -40 -69 -12 -25 -35 -67 -51 -95 -16 -27
-38 -69 -49 -91 -10 -23 -25 -45 -31 -49 -7 -4 -19 -22 -26 -39 -8 -17 -28
-49 -44 -71 -17 -22 -51 -71 -77 -110 -26 -38 -81 -111 -123 -162 -41 -50 -90
-111 -109 -136 -48 -62 -265 -277 -280 -277 -10 0 -11 12 -6 48 3 26 9 169 11
317 4 226 3 281 -11 340 -9 39 -21 93 -26 120 -6 28 -19 77 -30 110 -12 33
-25 77 -30 97 -5 20 -20 58 -34 84 -14 26 -25 54 -25 64 0 9 -11 31 -25 50
-14 19 -25 40 -25 48 0 8 -12 34 -27 59 -60 96 -195 299 -206 308 -7 6 -32 35
-57 65 -88 109 -253 274 -375 376 -38 32 -88 76 -110 97 -22 22 -57 51 -79 66
-21 14 -49 33 -61 41 -12 8 -46 35 -75 60 -73 62 -634 490 -706 540 -21 14
-190 142 -362 272 -128 97 -154 117 -194 143 -46 30 -48 55 -10 100 15 18 52
65 82 104 30 40 69 89 85 109 17 21 52 72 79 113 27 40 57 85 66 99 9 14 25
41 35 60 10 19 21 37 26 40 8 6 46 70 83 145 14 28 30 57 35 65 5 8 16 29 24
45 7 17 19 39 25 50 6 11 18 36 27 55 8 19 21 46 29 60 34 63 66 138 72 165 4
17 15 46 25 66 9 19 23 64 29 99 6 35 18 77 27 93 36 71 37 464 0 520 -8 12
-20 39 -27 61 -39 118 -185 249 -340 304 -82 29 -124 38 -282 57 -115 14 -143
14 -285 0 -105 -10 -183 -24 -233 -40 -42 -14 -82 -25 -90 -25 -22 0 -259
-108 -310 -141 -14 -9 -52 -34 -85 -55 -147 -95 -365 -301 -450 -424 -25 -36
-58 -83 -75 -105 -16 -22 -39 -58 -49 -80 -11 -22 -27 -51 -35 -65 -27 -46
-63 -125 -76 -165 -7 -22 -19 -49 -26 -60 -7 -11 -19 -49 -28 -84 -9 -36 -21
-70 -26 -76 -5 -6 -14 -43 -19 -81 -6 -38 -18 -100 -28 -139 -24 -98 -24 -343
0 -440 10 -38 22 -94 27 -124 5 -29 16 -63 23 -75 8 -11 22 -45 31 -73 10 -29
21 -55 26 -58 5 -3 14 -22 21 -43 6 -20 22 -50 35 -65 13 -16 24 -34 24 -40 0
-7 18 -37 40 -67 22 -30 47 -66 57 -80 10 -14 39 -53 65 -87 54 -70 62 -113
29 -154 -10 -13 -28 -44 -39 -69 -12 -25 -26 -52 -31 -60 -5 -8 -16 -28 -24
-45 -8 -16 -29 -57 -47 -90 -18 -33 -55 -103 -82 -155 -27 -52 -63 -117 -78
-145 -16 -27 -38 -70 -50 -95 -12 -25 -27 -52 -35 -60 -7 -8 -16 -26 -20 -40
-4 -14 -18 -38 -31 -53 -13 -16 -24 -35 -24 -44 0 -8 -10 -28 -21 -45 -24 -33
-59 -93 -89 -153 -11 -22 -33 -62 -49 -90 -16 -27 -41 -72 -55 -100 -27 -52
-34 -64 -76 -130 -14 -22 -32 -51 -39 -65 -6 -14 -24 -46 -39 -71 -15 -26 -40
-70 -57 -99 -16 -29 -41 -71 -55 -95 -14 -24 -38 -65 -53 -91 -15 -27 -38 -67
-51 -89 -12 -22 -33 -58 -45 -80 -13 -22 -29 -47 -36 -55 -7 -8 -20 -31 -29
-50 -9 -19 -32 -60 -51 -90 -37 -60 -71 -117 -95 -158 -9 -15 -29 -47 -45 -72
-15 -25 -39 -62 -52 -82 -71 -115 -91 -147 -123 -193 -8 -12 -25 -37 -37 -56
-29 -46 -62 -92 -98 -139 -16 -21 -41 -55 -55 -75 -14 -20 -69 -90 -122 -154
-102 -124 -204 -216 -302 -271 -50 -28 -69 -33 -126 -34 -61 0 -71 3 -103 29
-19 17 -41 44 -48 60 -7 17 -18 37 -25 45 -7 9 -21 47 -29 85 -9 39 -22 88
-30 110 -7 22 -16 81 -20 130 -4 50 -13 144 -21 210 -31 256 -36 467 -31 1210
3 407 10 796 16 865 11 133 24 458 42 1045 6 198 14 407 19 465 4 58 12 268
16 466 l7 361 -27 89 c-15 49 -34 103 -43 119 -9 17 -23 44 -31 60 -65 127
-228 279 -428 400 -127 76 -153 92 -189 110 -22 11 -49 26 -60 32 -11 6 -36
18 -55 27 -19 9 -42 20 -50 25 -8 5 -51 26 -95 46 -44 20 -98 45 -121 56 -23
10 -51 19 -62 19 -12 0 -47 10 -79 23 -51 19 -76 22 -213 22 -134 0 -164 -3
-219 -23 -35 -12 -78 -22 -95 -22 -17 0 -53 -11 -81 -25 -27 -13 -59 -25 -70
-25 -11 0 -36 -11 -55 -24 -19 -13 -46 -27 -60 -31 -14 -4 -38 -18 -53 -31
-16 -13 -33 -24 -38 -24 -28 0 -258 -179 -368 -284 -79 -77 -131 -136 -309
-351 -10 -11 -24 -30 -32 -41 -56 -82 -133 -193 -147 -214 -9 -14 -29 -44 -45
-67 -15 -23 -28 -45 -28 -49 0 -4 -7 -15 -16 -25 -18 -20 -43 -62 -78 -136
-14 -28 -30 -54 -35 -57 -6 -4 -19 -26 -30 -49 -11 -23 -25 -49 -30 -57 -5 -8
-16 -31 -25 -50 -9 -19 -20 -42 -26 -50 -5 -8 -16 -31 -25 -50 -8 -19 -22 -46
-29 -60 -8 -14 -21 -41 -30 -60 -9 -19 -20 -42 -25 -50 -12 -20 -52 -108 -91
-200 -17 -41 -42 -96 -56 -123 -13 -26 -24 -53 -24 -60 0 -6 -14 -39 -30 -72
-16 -33 -30 -66 -30 -73 0 -7 -11 -35 -25 -62 -14 -27 -25 -58 -25 -68 0 -10
-9 -36 -20 -57 -12 -22 -25 -60 -31 -85 -5 -25 -18 -56 -28 -70 -10 -14 -21
-41 -25 -60 -4 -19 -17 -60 -30 -90 -13 -30 -30 -75 -38 -100 -29 -83 -40
-115 -60 -165 -11 -27 -26 -72 -34 -100 -7 -27 -23 -68 -34 -90 -11 -21 -20
-48 -20 -58 0 -11 -11 -41 -25 -69 -14 -27 -25 -58 -25 -69 0 -11 -9 -37 -19
-57 -10 -20 -24 -57 -30 -82 -7 -25 -20 -65 -31 -90 -11 -25 -24 -64 -30 -87
-12 -47 -26 -55 -38 -20 -4 12 -4 630 0 1372 5 743 7 1512 6 1710 l-3 360 -35
46 c-30 39 -117 109 -136 109 -3 0 -33 13 -67 29 -107 51 -179 81 -195 81 -8
0 -39 11 -68 25 -30 14 -76 30 -104 35 -27 5 -64 17 -80 25 -17 9 -66 20 -108
25 -42 6 -95 15 -117 21 -89 24 -125 28 -229 29 -96 0 -116 -3 -170 -26 -69
-30 -130 -89 -148 -144 -16 -49 -24 -585 -37 -2680 -15 -2140 -11 -3820 8
-3865 7 -16 19 -84 27 -150 8 -66 23 -140 33 -165 11 -25 23 -63 27 -85 4 -22
15 -56 25 -75 11 -19 26 -51 35 -70 43 -97 123 -197 208 -258 61 -45 172 -89
241 -97 124 -14 212 -28 230 -37 12 -5 91 -7 180 -5 176 5 362 36 424 72 116
68 144 128 161 348 6 81 17 165 25 186 7 21 18 95 24 165 6 69 18 145 26 168
8 24 20 84 25 133 6 50 20 115 30 146 11 31 24 90 30 130 5 41 16 91 25 111 8
21 20 72 26 113 5 42 19 96 29 119 10 24 21 70 25 102 4 33 16 82 27 109 11
28 24 76 29 109 6 32 16 71 25 87 8 16 21 63 29 105 8 42 19 82 24 88 6 6 14
40 20 75 6 35 19 87 30 115 11 28 26 78 34 111 8 33 22 80 30 105 37 110 77
240 77 254 0 8 11 38 25 68 14 29 25 63 25 76 0 13 9 43 20 66 10 24 24 64 30
89 5 25 18 60 29 79 10 18 22 51 26 73 3 22 13 51 22 64 8 13 23 51 33 85 30
98 59 178 80 217 11 20 20 45 20 55 1 11 14 44 30 74 17 30 30 62 30 71 0 10
11 37 25 60 14 24 25 51 25 60 0 9 11 36 24 61 13 25 27 59 31 76 3 17 15 41
25 54 10 13 23 41 28 62 6 21 17 46 25 55 8 9 20 34 27 56 7 22 21 52 31 67
11 14 19 31 19 38 0 7 11 33 25 59 14 25 32 62 40 81 8 19 23 49 32 65 9 17
22 41 30 55 8 14 25 48 39 75 14 28 38 73 54 100 16 28 38 68 50 90 39 76 65
122 78 137 12 15 36 58 82 149 11 19 26 41 34 49 9 7 16 17 16 21 0 10 45 79
113 173 23 32 44 64 47 71 10 22 116 168 185 253 38 48 86 107 105 133 19 26
77 92 129 148 74 80 100 102 128 107 28 5 39 2 56 -14 21 -21 21 -23 9 -239
-7 -120 -17 -270 -22 -333 -6 -63 -15 -306 -21 -540 -6 -234 -17 -510 -24
-615 -8 -104 -19 -379 -24 -610 -6 -231 -16 -469 -22 -530 -18 -155 -19 -1215
-1 -1345 7 -52 15 -169 18 -260 4 -105 14 -212 29 -295 13 -71 26 -169 30
-218 3 -48 12 -102 20 -121 8 -19 19 -67 26 -108 6 -40 21 -105 35 -145 13
-39 24 -80 24 -91 0 -11 11 -44 25 -74 14 -29 25 -59 25 -67 0 -13 47 -120 73
-166 6 -11 19 -38 30 -60 31 -62 125 -184 197 -255 94 -93 257 -180 366 -195
27 -4 78 -15 114 -23 36 -9 101 -16 145 -15 84 0 324 42 347 60 7 6 31 16 53
22 38 12 152 61 185 81 112 65 185 111 230 144 30 23 64 48 77 56 91 62 195
154 361 320 213 213 396 427 563 659 41 57 86 120 101 140 15 20 36 52 47 72
11 19 27 41 35 48 9 8 16 19 17 25 0 6 20 38 44 71 25 33 54 76 65 95 11 19
34 55 50 80 16 25 41 65 55 90 14 25 39 65 55 90 16 25 41 65 55 90 54 95 73
127 103 175 17 28 41 69 53 92 11 23 27 47 35 54 8 6 14 17 14 24 0 8 11 26
24 42 13 15 31 44 40 63 8 19 34 64 56 99 22 34 40 67 40 71 0 5 11 21 24 37
13 15 31 44 40 63 9 19 30 55 46 80 16 25 37 61 46 80 9 19 27 48 40 63 13 16
24 33 24 39 0 5 10 24 22 41 13 18 30 44 38 59 22 39 68 118 95 163 13 22 36
60 50 85 14 25 40 68 57 95 36 57 68 112 99 170 12 22 28 47 36 56 8 9 23 34
35 55 50 95 58 107 71 123 8 9 33 51 56 93 23 43 46 80 51 83 5 3 19 25 30 48
11 23 32 60 45 82 13 22 34 57 45 78 11 20 25 37 31 37 11 0 213 -182 478
-430 97 -90 208 -193 246 -229 192 -178 441 -450 540 -590 17 -23 42 -58 58
-78 15 -20 27 -40 27 -45 0 -5 11 -24 25 -42 14 -18 25 -37 25 -43 0 -6 9 -22
20 -36 11 -14 27 -45 35 -68 9 -24 22 -50 29 -59 8 -8 17 -26 20 -40 4 -14 17
-50 30 -80 24 -57 46 -135 72 -255 12 -54 14 -120 11 -290 -3 -206 -5 -226
-31 -310 -25 -80 -51 -150 -85 -225 -31 -68 -151 -215 -210 -258 -93 -66 -137
-91 -176 -98 -22 -4 -58 -15 -80 -25 -58 -27 -248 -26 -336 0 -35 11 -80 22
-99 26 -37 7 -134 45 -185 72 -16 9 -48 25 -70 36 -21 11 -51 27 -65 37 -14 9
-50 34 -80 54 -30 20 -73 50 -95 67 -22 16 -51 37 -65 47 -14 9 -51 37 -83 62
-32 25 -67 50 -78 56 -10 6 -27 18 -37 27 -10 10 -22 17 -27 17 -4 0 -22 11
-39 24 -17 13 -63 36 -101 52 -58 24 -84 29 -155 29 -76 0 -90 -3 -135 -29
-89 -53 -191 -145 -282 -253 -95 -115 -111 -139 -168 -253 -20 -41 -47 -95
-60 -120 -13 -25 -26 -61 -30 -80 -4 -19 -17 -53 -28 -75 -15 -31 -21 -66 -25
-155 -5 -120 -1 -138 47 -216 34 -55 193 -204 218 -204 5 0 27 -13 49 -30 21
-16 46 -30 55 -30 8 0 30 -11 49 -25 19 -14 39 -25 44 -25 6 0 38 -13 71 -29
104 -50 149 -68 185 -76 19 -4 60 -17 90 -30 30 -12 79 -25 109 -29 30 -4 66
-13 80 -21 15 -7 60 -18 101 -24 41 -6 98 -17 127 -26 28 -8 108 -22 176 -30
69 -8 147 -22 174 -32 43 -15 97 -17 483 -18 414 0 439 1 520 22 47 12 118 24
159 28 41 4 96 15 122 25 26 11 71 22 101 26 29 4 79 17 110 30 32 13 66 24
77 24 11 0 45 11 75 25 30 14 62 25 71 25 10 0 38 11 64 24 41 22 86 43 191
90 19 9 60 30 90 47 30 18 75 42 100 56 25 13 65 37 90 53 25 16 61 39 80 50
245 145 740 621 920 885 14 20 37 51 51 68 15 18 65 91 112 162 47 72 95 141
106 155 10 14 26 41 35 60 9 19 30 55 46 80 16 25 37 61 46 80 9 19 22 42 29
50 7 8 47 81 89 162 41 81 80 156 85 165 9 19 45 96 101 218 50 111 54 117 73
129 28 17 33 -3 41 -146 4 -71 16 -167 26 -212 11 -45 24 -124 30 -177 5 -52
16 -111 24 -131 8 -19 20 -74 26 -123 6 -48 17 -97 25 -108 7 -12 21 -60 29
-106 9 -46 20 -89 26 -96 5 -6 16 -39 24 -73 8 -33 21 -75 30 -92 8 -18 18
-48 22 -69 4 -20 17 -54 30 -77 13 -22 24 -47 24 -55 0 -7 11 -36 25 -64 13
-27 31 -66 40 -85 8 -19 23 -48 32 -65 16 -31 33 -63 64 -126 10 -19 25 -41
33 -49 9 -7 16 -18 16 -24 0 -6 21 -40 46 -76 24 -36 52 -76 61 -90 75 -113
297 -331 413 -404 25 -16 63 -41 85 -55 22 -14 67 -39 100 -55 33 -15 81 -39
108 -52 26 -13 54 -24 63 -24 9 0 48 -11 87 -24 40 -13 113 -29 162 -36 50 -6
115 -16 145 -22 84 -16 236 -14 305 4 33 9 82 19 110 23 27 4 63 14 79 22 16
8 52 22 80 30 28 8 58 21 66 28 8 7 31 20 50 29 33 16 58 30 141 83 64 41 101
68 167 124 139 118 374 364 442 464 14 20 35 48 46 63 54 68 244 364 244 380
0 6 11 23 24 39 13 15 27 39 31 53 4 14 13 32 20 40 15 18 95 182 95 195 0 4
6 16 14 24 7 9 21 40 30 68 10 29 21 55 26 58 5 3 16 30 25 60 19 65 52 125
70 125 14 0 24 -30 25 -75 1 -16 8 -48 16 -70 8 -22 22 -64 30 -94 9 -29 24
-70 35 -90 10 -19 19 -45 19 -56 0 -11 14 -47 30 -80 16 -33 30 -67 30 -75 0
-8 12 -33 25 -55 14 -22 25 -47 25 -55 0 -9 11 -32 25 -52 14 -20 25 -43 25
-51 0 -7 12 -29 26 -48 14 -19 32 -47 40 -64 15 -30 43 -78 78 -131 11 -16 31
-47 45 -69 27 -42 87 -118 194 -244 96 -113 339 -310 462 -373 17 -9 70 -37
119 -62 49 -25 97 -46 105 -46 9 0 26 -7 38 -15 12 -8 45 -20 75 -26 29 -6 65
-18 80 -25 14 -7 59 -18 100 -25 40 -6 111 -18 158 -26 99 -19 356 -29 373
-15 13 11 116 28 223 38 40 3 84 12 99 20 14 7 54 19 88 25 34 6 80 19 102 30
22 10 58 23 80 30 22 6 49 17 60 24 11 6 38 18 60 25 22 7 47 19 56 26 8 8 31
19 49 26 19 6 50 22 68 35 19 13 39 23 45 23 5 0 34 17 64 37 30 21 72 49 93
63 78 52 97 66 185 139 123 103 242 219 334 326 93 108 172 210 195 251 9 16
32 49 51 74 19 25 40 56 45 69 6 13 22 37 35 53 14 16 25 34 25 40 0 5 9 22
19 37 11 15 23 39 26 54 16 61 55 33 55 -38 0 -23 8 -66 19 -96 10 -30 21 -76
25 -104 4 -27 16 -63 26 -80 10 -16 21 -46 25 -65 7 -33 37 -102 70 -160 8
-14 22 -41 31 -60 9 -19 27 -48 40 -63 13 -16 24 -33 24 -39 0 -11 23 -42 101
-136 101 -121 225 -237 325 -303 130 -86 167 -109 179 -109 6 0 26 -11 45 -25
19 -14 41 -25 49 -25 9 0 38 -11 66 -24 109 -52 300 -97 465 -109 79 -5 432
30 482 49 24 8 66 21 93 29 28 7 64 19 80 28 17 8 59 30 95 47 93 46 175 97
250 155 155 120 347 327 435 470 23 37 50 79 75 115 48 71 174 361 204 470 10
36 24 85 32 110 7 25 24 103 39 173 34 171 45 474 21 599 -8 46 -18 108 -21
137 -9 79 -59 244 -85 280 -12 17 -37 43 -55 57 -31 23 -40 25 -86 19 -34 -5
-60 -15 -75 -30 -24 -24 -54 -111 -54 -156 0 -15 -11 -83 -24 -151 -13 -68
-29 -154 -36 -192 -6 -37 -17 -87 -25 -110 -7 -22 -18 -67 -24 -100 -6 -32
-19 -72 -30 -90 -10 -17 -22 -49 -26 -71 -4 -22 -18 -63 -31 -91 -13 -28 -24
-56 -24 -62 0 -7 -11 -33 -24 -59 -14 -27 -29 -59 -35 -73 -6 -14 -24 -47 -41
-75 -16 -27 -39 -67 -50 -87 -11 -20 -34 -58 -52 -85 -39 -59 -242 -263 -261
-263 -8 0 -20 -6 -26 -14 -20 -24 -163 -66 -223 -66 -31 0 -75 7 -98 15 -23 8
-54 15 -69 15 -14 0 -42 9 -61 19 -19 11 -48 27 -65 35 -38 19 -130 112 -161
163 -35 58 -94 179 -94 192 0 6 -9 29 -20 50 -10 21 -27 71 -36 111 -9 40 -22
88 -30 106 -8 18 -17 66 -20 106 -4 40 -15 105 -26 143 -11 42 -23 133 -29
225 -5 85 -14 182 -19 215 -30 178 -33 306 -32 1374 0 1023 5 1254 32 1771 6
102 15 461 20 798 6 337 13 624 16 638 11 42 -15 155 -44 195 -43 58 -199 178
-254 194 -12 4 -39 16 -58 26 -55 29 -180 70 -245 81 -33 6 -71 16 -86 23 -14
8 -81 21 -150 29 -68 9 -137 21 -154 25 -16 5 -75 12 -130 16 -88 5 -110 3
-180 -18 -98 -30 -161 -71 -224 -146 -60 -73 -87 -173 -77 -281 3 -38 3 -76 0
-84 -11 -28 -43 -18 -68 23 -61 96 -303 332 -436 424 -14 9 -42 30 -64 45 -78
55 -122 82 -156 98 -19 8 -57 26 -84 40 -28 13 -56 24 -63 24 -7 0 -27 9 -45
20 -18 11 -53 22 -78 26 -25 4 -67 15 -94 26 -57 22 -187 37 -396 44 -165 6
-401 -15 -463 -41 -21 -9 -63 -21 -94 -26 -30 -6 -75 -21 -100 -35 -25 -13
-52 -24 -59 -24 -13 0 -73 -29 -144 -67 -14 -8 -39 -20 -56 -28 -35 -16 -158
-97 -244 -161 -60 -45 -289 -267 -361 -350 -87 -101 -212 -273 -292 -401 -13
-21 -32 -51 -43 -67 -58 -88 -90 -147 -176 -318 -86 -172 -128 -264 -128 -278
0 -6 -11 -32 -25 -58 -14 -26 -25 -59 -25 -73 0 -14 -11 -46 -23 -70 -13 -24
-27 -62 -31 -84 -4 -21 -16 -55 -26 -75 -9 -19 -23 -65 -29 -101 -6 -36 -18
-80 -26 -97 -9 -17 -20 -59 -26 -94 -6 -35 -17 -81 -26 -103 -8 -22 -18 -76
-23 -120 -5 -44 -15 -100 -24 -125 -9 -25 -23 -101 -31 -170 -9 -69 -22 -145
-30 -170 -8 -25 -17 -85 -21 -135 -3 -49 -12 -128 -20 -175 -25 -151 -40 -370
-69 -1000 -5 -118 -29 -264 -54 -332 -11 -32 -21 -70 -21 -85 0 -16 -11 -51
-24 -78 -12 -28 -26 -68 -30 -90 -4 -21 -16 -55 -26 -75 -9 -19 -21 -51 -25
-70 -4 -19 -15 -49 -25 -66 -9 -17 -23 -48 -30 -70 -7 -21 -21 -53 -31 -70
-11 -17 -19 -38 -19 -46 0 -8 -10 -31 -23 -50 -13 -18 -29 -49 -35 -66 -6 -18
-20 -45 -32 -59 -11 -14 -20 -32 -20 -40 0 -8 -10 -29 -22 -46 -13 -18 -31
-48 -41 -67 -9 -19 -29 -54 -45 -77 -15 -23 -45 -70 -67 -103 -54 -82 -226
-290 -300 -363 -153 -150 -319 -247 -456 -265 -85 -11 -180 0 -219 25 -44 29
-141 127 -157 158 -9 17 -23 39 -33 50 -10 11 -21 31 -25 44 -4 12 -18 39 -31
58 -13 20 -24 45 -24 57 0 12 -9 36 -21 55 -11 18 -25 59 -30 89 -6 31 -18 70
-26 86 -8 16 -21 65 -29 109 -8 43 -21 100 -30 126 -9 25 -20 91 -25 146 -6
55 -14 129 -20 165 -25 162 -30 225 -38 545 -14 560 6 2237 34 2750 7 143 16
415 20 605 7 450 24 890 35 916 4 12 11 167 15 345 4 192 11 336 17 352 10 27
14 28 52 23 23 -3 181 -1 351 4 171 6 582 15 915 21 333 6 621 12 640 14 19 1
50 3 68 4 23 1 45 13 77 42 47 43 125 150 125 171 0 6 11 30 24 52 13 23 26
58 30 78 4 20 15 56 25 80 39 89 52 391 21 473 -28 75 -102 120 -211 130 -40
3 -146 15 -234 25 -88 11 -288 24 -445 30 -157 6 -379 17 -493 25 -115 9 -331
20 -480 26 -321 12 -405 20 -418 40 -14 20 -1 721 17 989 24 331 33 545 33
776 l1 211 -40 51 c-51 63 -150 124 -280 170 -115 42 -186 69 -207 81 -13 6
-48 16 -78 22 -30 5 -74 18 -97 28 -24 11 -69 22 -100 26 -31 3 -81 15 -110
26 -29 10 -84 22 -122 26 -55 5 -70 10 -74 25 -4 17 -19 18 -217 18 -201 0
-214 -1 -220 -19z m6590 -5054 c22 -8 56 -20 75 -27 38 -14 80 -33 146 -67 51
-26 209 -180 250 -242 85 -128 164 -273 164 -299 0 -7 11 -34 25 -60 14 -26
25 -57 25 -70 0 -12 11 -48 24 -80 13 -31 27 -79 31 -107 4 -27 15 -75 25
-105 11 -30 24 -95 29 -145 6 -49 19 -139 30 -200 23 -133 36 -423 36 -795 0
-285 -19 -853 -29 -869 -8 -12 -32 -189 -41 -296 -4 -44 -15 -114 -25 -155
-11 -41 -24 -112 -30 -157 -6 -46 -17 -97 -24 -115 -8 -18 -19 -66 -25 -106
-6 -41 -18 -86 -26 -102 -8 -15 -19 -54 -24 -88 -5 -33 -18 -77 -29 -98 -11
-22 -23 -59 -27 -84 -4 -25 -18 -64 -31 -87 -13 -23 -24 -50 -24 -60 0 -10
-11 -38 -24 -63 -13 -25 -26 -58 -30 -74 -4 -17 -15 -41 -25 -55 -10 -14 -23
-41 -29 -60 -7 -18 -34 -71 -62 -117 -27 -46 -50 -87 -50 -92 0 -5 -9 -17 -20
-27 -11 -10 -20 -23 -20 -28 0 -32 -243 -309 -310 -353 -19 -12 -64 -43 -100
-68 -36 -25 -69 -46 -75 -46 -5 0 -32 -11 -60 -24 -113 -55 -325 -83 -398 -53
-18 8 -50 17 -71 21 -39 7 -126 51 -179 90 -72 53 -197 190 -239 262 -10 16
-22 36 -27 44 -46 76 -71 124 -71 139 0 9 -11 32 -25 51 -14 18 -28 50 -31 69
-4 20 -17 56 -29 81 -13 25 -26 63 -30 85 -4 21 -13 52 -21 67 -8 15 -21 61
-29 102 -7 41 -21 95 -29 121 -9 25 -20 85 -26 134 -5 48 -16 107 -25 130 -8
23 -21 133 -30 249 -8 114 -21 232 -28 262 -17 75 -16 898 1 990 7 36 19 165
27 288 9 122 20 244 26 270 10 49 20 119 39 266 6 49 15 97 21 107 5 10 16 64
25 119 8 56 21 118 29 138 8 20 19 67 24 103 5 36 18 87 30 112 12 25 21 57
21 70 0 13 11 46 25 73 14 27 28 65 31 84 4 19 17 53 30 76 13 22 24 47 24 55
0 16 108 233 138 276 10 15 27 39 36 53 53 80 70 103 138 181 74 83 187 177
259 215 117 61 211 97 279 106 90 11 320 2 365 -15z"/>
<path d="M1165 5513 c-178 -16 -385 -91 -539 -196 -79 -53 -206 -175 -267
-256 -93 -124 -169 -294 -205 -461 -18 -81 -19 -156 -19 -1500 0 -1535 -3
-1460 56 -1645 134 -424 513 -735 952 -784 139 -16 37596 -15 37722 0 432 53
792 347 929 759 19 58 40 141 46 185 8 57 10 497 8 1520 -3 1439 -3 1440 -25
1515 -106 374 -324 626 -671 776 -100 43 -204 70 -326 83 -67 8 -5634 11
-18858 9 -10320 -1 -18781 -3 -18803 -5z m11167 -773 c36 -11 92 -38 124 -60
33 -21 208 -188 389 -371 l330 -333 -79 -8 c-96 -9 -188 -38 -253 -81 -26 -17
-172 -155 -323 -305 -178 -178 -285 -278 -304 -283 -51 -15 -107 30 -391 316
-239 242 -277 276 -335 303 -76 35 -156 52 -252 52 -37 0 -68 4 -68 8 0 13
627 632 690 681 133 105 301 134 472 81z m5248 -285 c386 -58 613 -272 676
-637 22 -127 15 -359 -15 -478 -71 -282 -268 -482 -552 -560 -151 -41 -257
-50 -591 -50 l-318 0 0 -515 0 -515 -430 0 -430 0 0 1385 0 1385 783 0 c630 0
800 -3 877 -15z m5310 -1370 l0 -1385 -430 0 -430 0 0 1385 0 1385 430 0 430
0 0 -1385z m4884 969 c132 -228 242 -417 246 -419 3 -2 106 178 228 399 122
221 228 410 235 419 11 16 50 17 480 15 l468 -3 -425 -663 c-234 -365 -426
-667 -426 -672 0 -5 210 -327 466 -717 l465 -708 -478 -3 c-263 -1 -483 0
-488 2 -6 2 -129 200 -275 439 -145 240 -267 434 -271 431 -4 -2 -128 -200
-275 -439 l-269 -435 -477 0 -478 0 73 113 c41 61 254 385 475 719 l401 608
-401 612 c-220 337 -416 637 -435 666 l-34 52 478 0 478 0 239 -416z m-16465
-224 c116 -19 143 -40 451 -345 175 -174 301 -291 327 -304 51 -26 146 -28
201 -6 24 11 132 110 317 294 154 154 298 290 321 304 72 45 124 56 263 59
l132 2 180 -179 c284 -283 329 -348 351 -504 14 -101 -2 -199 -48 -289 -37
-74 -198 -258 -371 -423 l-101 -96 -88 -7 c-112 -8 -219 5 -281 35 -34 17
-130 104 -338 310 -159 158 -306 295 -325 305 -38 19 -142 25 -195 11 -20 -6
-126 -104 -325 -300 -212 -210 -310 -300 -350 -322 -53 -28 -61 -30 -230 -36
l-175 -7 -221 222 c-235 236 -267 279 -299 401 -22 86 -20 212 6 287 34 101
83 164 295 378 l202 205 59 6 c95 10 174 10 242 -1z m942 -978 c14 -9 149
-141 300 -293 196 -197 288 -283 325 -302 63 -33 161 -57 237 -57 37 0 57 -4
57 -12 0 -20 -651 -662 -713 -702 -99 -64 -155 -80 -293 -80 l-121 -1 -89 44
c-87 43 -95 50 -436 389 -192 191 -348 349 -348 353 0 3 48 9 108 12 125 7
189 24 257 69 28 18 160 145 295 282 135 137 265 264 290 282 51 38 91 43 131
16z"/>
<path d="M16780 3600 l0 -313 178 6 c249 8 341 34 414 115 46 51 63 101 62
188 0 60 -5 82 -32 137 -68 137 -140 166 -429 174 l-193 6 0 -313z"/>
</g>
</svg>
