<?xml version="1.0" encoding="utf-8"?>
<svg width="700pt" height="700pt" version="1.1" viewBox="0 0 700 700" xmlns="http://www.w3.org/2000/svg" fill="white">
  <g style="" transform="matrix(1.816921, 0.011846, -0.010651, 1.633714, -283.996979, -104.39473)">
    <path d="m218.2 93.516h207.88c17.133 0 32.707 7.0039 43.992 18.289 11.285 11.285 18.289 26.859 18.289 43.992v197.15h-276.72v-259.43zm207.88 13.125h-201.31v233.18h250.47v-184.02c0-13.512-5.5312-25.801-14.445-34.711-8.9141-8.9141-21.199-14.445-34.711-14.445z"/>
    <path d="m523.8 466.48h-354.16v-126.66h360.72v126.66zm-341.04-13.125h334.47v-100.41h-334.47z"/>
    <path d="m258 173.25h184v13.125h-184z"/>
    <path d="m258 219.39h184v13.125h-184z"/>
    <path d="m258 265.54h184v13.125h-184z"/>
    <path d="m299.15 409.36 18.441 5.582c-1.2383 5.168-3.1875 9.4844-5.8516 12.957-2.6641 3.4727-5.9766 6.0898-9.9258 7.8516-3.9492 1.7773-8.9766 2.6484-15.066 2.6484-7.4062 0-13.465-1.0781-18.141-3.2188-4.6953-2.1562-8.7539-5.9453-12.164-11.371-3.3945-5.4219-5.1055-12.352-5.1055-20.805 0-11.273 2.9961-19.949 8.9922-25.992 5.9922-6.0586 14.477-9.0859 25.438-9.0859 8.5781 0 15.32 1.7266 20.234 5.2031 4.918 3.4727 8.5625 8.8008 10.941 15.984l-18.586 4.1406c-0.64844-2.0781-1.332-3.6016-2.0469-4.5664-1.1719-1.6016-2.6172-2.8398-4.3125-3.7109-1.7109-0.87109-3.6172-1.3008-5.7266-1.3008-4.7578 0-8.4219 1.918-10.957 5.7578-1.918 2.8555-2.8867 7.3281-2.8867 13.43 0 7.5625 1.1562 12.734 3.4414 15.539 2.3008 2.8086 5.5195 4.2031 9.6562 4.2031 4.0273 0 7.0742-1.125 9.1328-3.3945 2.0625-2.2539 3.5508-5.5352 4.4883-9.8477zm28.574-40.277h34.98c7.6133 0 13.32 1.8086 17.109 5.4375 3.7891 3.6172 5.6914 8.7852 5.6914 15.461 0 6.8828-2.0625 12.258-6.1992 16.129-4.1406 3.8711-10.449 5.8047-18.934 5.8047h-11.512v25.277h-21.137zm21.137 29.035h5.1523c4.0586 0 6.8984-0.69922 8.5469-2.1094 1.6328-1.4102 2.457-3.2188 2.457-5.4062 0-2.1406-0.71484-3.9648-2.1406-5.4375-1.4102-1.4922-4.0898-2.2344-8.0234-2.2344h-5.9922v15.191zm47.746-29.035h52.047v14.637h-30.906v11.895h26.387v13.75h-26.387v27.832h-21.137v-68.109z"/>
  </g>
</svg>