<?xml version="1.0" encoding="utf-8"?>
<svg width="700pt" height="700pt" version="1.1" viewBox="0 0 700 700" xmlns="http://www.w3.org/2000/svg">
  <defs>
    <symbol id="g" overflow="visible">
      <path d="m39.078-2.3281c-2.0117 1.043-4.1094 1.8281-6.2969 2.3594s-4.4648 0.79688-6.8281 0.79688c-7.0859 0-12.699-1.9766-16.844-5.9375-4.1367-3.957-6.2031-9.3281-6.2031-16.109 0-6.7891 2.0664-12.164 6.2031-16.125 4.1445-3.9688 9.7578-5.9531 16.844-5.9531 2.3633 0 4.6406 0.26562 6.8281 0.79688s4.2852 1.3242 6.2969 2.375v8.7969c-2.0312-1.3828-4.0391-2.3984-6.0156-3.0469-1.9688-0.64453-4.0469-0.96875-6.2344-0.96875-3.9062 0-6.9844 1.2578-9.2344 3.7656-2.2422 2.5-3.3594 5.9531-3.3594 10.359 0 4.3867 1.1172 7.8359 3.3594 10.344 2.25 2.5 5.3281 3.75 9.2344 3.75 2.1875 0 4.2656-0.32031 6.2344-0.96875 1.9766-0.64453 3.9844-1.6602 6.0156-3.0469z"/>
    </symbol>
    <symbol id="f" overflow="visible">
      <path d="m16.031-40.953v9.0625h10.516v7.2812h-10.516v13.531c0 1.4805 0.28906 2.4805 0.875 3 0.59375 0.52344 1.7656 0.78125 3.5156 0.78125h5.2344v7.2969h-8.7344c-4.0312 0-6.8867-0.83594-8.5625-2.5156-1.6797-1.6875-2.5156-4.5391-2.5156-8.5625v-13.531h-5.0781v-7.2812h5.0781v-9.0625z"/>
    </symbol>
    <symbol id="e" overflow="visible">
      <path d="m26.594-27.234v-17.078h10.266v44.312h-10.266v-4.6094c-1.3984 1.875-2.9453 3.25-4.6406 4.125-1.6875 0.875-3.6406 1.3125-5.8594 1.3125-3.9297 0-7.1562-1.5625-9.6875-4.6875-2.5234-3.125-3.7812-7.1445-3.7812-12.062 0-4.9141 1.2578-8.9375 3.7812-12.062 2.5312-3.125 5.7578-4.6875 9.6875-4.6875 2.1953 0 4.1445 0.44531 5.8438 1.3281 1.707 0.88672 3.2578 2.2578 4.6562 4.1094zm-6.7188 20.656c2.1875 0 3.8516-0.79688 5-2.3906 1.1445-1.5938 1.7188-3.9102 1.7188-6.9531 0-3.0391-0.57422-5.3594-1.7188-6.9531-1.1484-1.5938-2.8125-2.3906-5-2.3906-2.168 0-3.8242 0.79688-4.9688 2.3906-1.1484 1.5938-1.7188 3.9141-1.7188 6.9531 0 3.043 0.57031 5.3594 1.7188 6.9531 1.1445 1.5938 2.8008 2.3906 4.9688 2.3906z"/>
    </symbol>
    <symbol id="d" overflow="visible">
      <path d="m21.875-6.5781c2.1758 0 3.8359-0.79688 4.9844-2.3906 1.1562-1.5938 1.7344-3.9102 1.7344-6.9531 0-3.0391-0.57812-5.3594-1.7344-6.9531-1.1484-1.5938-2.8086-2.3906-4.9844-2.3906-2.1875 0-3.8672 0.80469-5.0312 2.4062-1.168 1.6055-1.75 3.918-1.75 6.9375 0 3.0234 0.58203 5.3359 1.75 6.9375 1.1641 1.6055 2.8438 2.4062 5.0312 2.4062zm-6.7812-20.656c1.4062-1.8516 2.9609-3.2227 4.6719-4.1094 1.707-0.88281 3.6719-1.3281 5.8906-1.3281 3.9375 0 7.1641 1.5625 9.6875 4.6875 2.5195 3.125 3.7812 7.1484 3.7812 12.062 0 4.918-1.2617 8.9375-3.7812 12.062-2.5234 3.125-5.75 4.6875-9.6875 4.6875-2.2188 0-4.1836-0.44531-5.8906-1.3281-1.7109-0.88281-3.2656-2.2539-4.6719-4.1094v4.6094h-10.188v-44.312h10.188z"/>
    </symbol>
    <symbol id="c" overflow="visible">
      <path d="m5.3594-42.516h18.188c5.4141 0 9.5703 1.2031 12.469 3.6094 2.8945 2.3984 4.3438 5.8125 4.3438 10.25 0 4.4688-1.4492 7.9062-4.3438 10.312-2.8984 2.3984-7.0547 3.5938-12.469 3.5938h-7.2344v14.75h-10.953zm10.953 7.9375v11.875h6.0781c2.125 0 3.7656-0.51562 4.9219-1.5469s1.7344-2.5 1.7344-4.4062c0-1.8945-0.57812-3.3516-1.7344-4.375-1.1562-1.0312-2.7969-1.5469-4.9219-1.5469z"/>
    </symbol>
    <symbol id="b" overflow="visible">
      <path d="m0.28125-42.516h39.188v8.2812h-14.094v34.234h-10.969v-34.234h-14.125z"/>
    </symbol>
    <symbol id="a" overflow="visible">
      <path d="m36.969-19.422v19.422h-10.25v-14.812c0-2.7891-0.0625-4.707-0.1875-5.75-0.125-1.0391-0.33984-1.8125-0.64062-2.3125-0.39844-0.65625-0.9375-1.1719-1.625-1.5469s-1.4648-0.5625-2.3281-0.5625c-2.1367 0-3.8125 0.82422-5.0312 2.4688-1.2109 1.6484-1.8125 3.9219-1.8125 6.8281v15.688h-10.188v-44.312h10.188v17.078c1.5391-1.8516 3.1719-3.2227 4.8906-4.1094 1.7266-0.88281 3.6406-1.3281 5.7344-1.3281 3.6875 0 6.4844 1.1328 8.3906 3.3906 1.9062 2.2617 2.8594 5.5469 2.8594 9.8594z"/>
    </symbol>
  </defs>
  <g>
    <path d="M 349.89 0.882 C 258.149 0.882 170.166 37.117 105.296 101.617 C 40.425 166.113 3.979 253.594 3.979 344.804 C 3.979 436.014 40.424 523.494 105.296 587.99 C 170.166 652.488 258.152 688.725 349.89 688.725 C 441.626 688.725 529.613 652.489 594.482 587.99 C 659.352 523.494 695.799 436.014 695.799 344.804 C 695.799 253.594 659.355 166.113 594.482 101.617 C 529.613 37.119 441.626 0.882 349.89 0.882 Z M 320.214 470.251 C 318.069 471.094 315.783 471.524 313.48 471.517 C 306.018 471.524 299.307 467.003 296.545 460.112 L 266.87 386.256 C 263.846 379.19 258.761 373.188 252.27 369.026 C 245.78 364.861 238.177 362.728 230.454 362.909 L 222.445 362.909 L 222.445 453.415 C 222.445 463.408 214.295 471.517 204.244 471.517 C 194.186 471.517 186.035 463.408 186.035 453.415 L 186.035 254.307 C 186.035 244.7 189.868 235.495 196.702 228.707 C 203.53 221.917 212.789 218.099 222.445 218.099 L 258.86 218.099 C 278.854 218.075 297.982 226.223 311.754 240.632 C 325.524 255.046 332.735 274.459 331.682 294.307 C 330.792 307.144 326.475 319.513 319.18 330.138 C 311.884 340.762 301.875 349.265 290.176 354.768 C 294.595 360.266 298.21 366.362 300.916 372.866 L 330.59 446.896 L 330.59 446.903 C 334.181 456.2 329.542 466.631 320.216 470.254 L 320.214 470.251 Z M 431.816 326.704 L 450.024 326.704 C 472.786 326.704 493.82 338.783 505.208 358.383 C 516.588 377.983 516.588 402.133 505.208 421.735 C 493.82 441.341 472.786 453.414 450.024 453.414 L 440.917 453.414 L 440.917 489.614 C 440.917 499.615 432.765 507.716 422.714 507.716 C 412.657 507.716 404.507 499.615 404.507 489.614 L 404.507 453.414 L 386.299 453.414 C 376.247 453.414 368.098 445.31 368.098 435.31 C 368.098 425.316 376.247 417.214 386.299 417.214 L 450.024 417.214 C 459.777 417.214 468.792 412.037 473.667 403.637 C 478.551 395.238 478.551 384.886 473.667 376.486 C 468.792 368.086 459.777 362.909 450.024 362.909 L 431.816 362.909 C 409.047 362.909 388.012 350.831 376.633 331.231 C 365.251 311.631 365.251 287.479 376.633 267.878 C 388.012 248.272 409.047 236.198 431.816 236.198 L 440.917 236.198 L 440.917 199.999 C 440.917 189.999 449.073 181.896 459.125 181.896 C 469.178 181.896 477.332 189.999 477.332 199.999 L 477.332 236.198 L 495.54 236.198 L 495.535 236.198 C 505.592 236.198 513.742 244.302 513.742 254.303 C 513.742 264.297 505.592 272.4 495.535 272.4 L 431.816 272.4 C 422.056 272.4 413.041 277.576 408.165 285.976 C 403.288 294.375 403.288 304.727 408.165 313.127 C 413.041 321.528 422.056 326.704 431.816 326.704 Z M 286.171 265.521 C 279.07 258.113 269.151 254.035 258.862 254.302 L 222.446 254.302 L 222.446 326.709 L 255.766 326.709 L 255.766 326.703 C 265.458 326.945 274.894 323.569 282.208 317.235 C 289.523 310.903 294.181 302.072 295.271 292.497 C 295.821 282.515 292.198 272.751 285.256 265.521 L 286.171 265.521 Z" style=""/>
  </g>
</svg>