<?xml version="1.0" encoding="UTF-8"?>
<svg width="1200pt" height="1200pt" version="1.1" viewBox="0 0 1200 1200" xmlns="http://www.w3.org/2000/svg">
 <g>
  <path d="m453.55 160.66-292.89 292.89c-80.879 80.879-80.879 212.01 0 292.89l292.89 292.89c80.883 80.879 212.01 80.879 292.89 0l292.9-292.89c80.875-80.883 80.875-212.02 0-292.89l-292.9-292.89c-80.879-80.879-212.01-80.879-292.89 0zm219.67 73.223 292.9 292.89c40.434 40.438 40.434 106.01-0.003906 146.45l-292.89 292.89c-40.441 40.441-106 40.441-146.45 0l-292.89-292.89c-40.441-40.441-40.441-106.01 0-146.45l292.89-292.89c40.441-40.441 106-40.441 146.45 0z"/>
  <path d="m108.12 605.2c0 173.98 236.26 335.09 368.99 196.57l28.652-31.117c43.441-47.227 64.992-61.973 94.105-61.902 25.707 0.0625 45.922 11.809 80.336 47.086l37.355 40.105c129.98 149.81 374.32-13.816 374.32-190.74 0-173.98-236.25-335.09-368.99-196.57l-30.801 33.344-15.125 15.695c-33.176 33.312-52.414 43.98-76.965 43.98-26.445 0-48.613-13.926-86.406-53.57l-31.113-33.578c-130.03-149.84-374.36 13.773-374.36 190.7zm880.21 0c0 91.766-130.38 181.49-189.28 126.19l-12.816-13.672-14.148-15.41c-62.879-68.324-104.33-96.949-171.96-97.109-63.691-0.16016-104 24.996-160.47 84.527l-32.875 35.516c-57.582 66.293-195.1-25.797-195.1-120.04 0-91.766 130.38-181.48 189.28-126.19l28.176 30.383c61.508 66.492 104.45 95.809 170.87 95.809 65.578 0 104.67-25.508 166.18-90.859l28.246-30.531c56.379-64.941 193.9 27.145 193.9 121.39z"/>
 </g>
</svg>
